# xmcd CD database file generated by Grip 2.95
# 
# Track frame offsets:
#       150
#       23237
#       36662
#       58300
#       74650
#       85037
#       109187
#       125075
#       142475
#       162425
# 
# Disc length: 2278 seconds
# 
# Revision: 3
# Processed by: cddbd v1.4b41PL1 Copyright (c) Steve Scherf et al.
# Submitted via: Grip 2.95
# 
DISCID=a208e40a
DTITLE=The Rave-ups - Town and Country
DYEAR=1900
DGENRE=
TTITLE0=Positively Lost Me
TTITLE1=Remember (Newman's Lovesong)
TTITLE2=Better World
TTITLE3=Class Tramp
TTITLE4=In My Gremlin
TTITLE5=Radio
TTITLE6=By The Way
TTITLE7=Not Where You're At (But Where You Will Be)
TTITLE8=You Ain't Going Nowhere
TTITLE9=Rave-up/Shut-up
EXTD=
EXTT0=
EXTT1=
EXTT2=
EXTT3=
EXTT4=
EXTT5=
EXTT6=
EXTT7=
EXTT8=
EXTT9=
PLAYORDER=
